<?xml version="1.0" encoding="utf-8"?>
<!-- Svg Vector Icons : http://www.onlinewebfonts.com/icon -->
<!DOCTYPE svg PUBLIC "-//W3C//DTD SVG 1.1//EN" "http://www.w3.org/Graphics/SVG/1.1/DTD/svg11.dtd">
<svg version="1.1" xmlns="http://www.w3.org/2000/svg" xmlns:xlink="http://www.w3.org/1999/xlink" x="0px" y="0px" viewBox="0 0 1000 1000" enable-background="new 0 0 1000 1000" xml:space="preserve">
<metadata> Svg Vector Icons : http://www.onlinewebfonts.com/icon </metadata>
<g><path d="M500,990C229.8,990,10,770.2,10,500C10,229.8,229.8,10,500,10c270.2,0,490,219.8,490,490C990,770.2,770.2,990,500,990z M500,52.6C253.3,52.6,52.6,253.3,52.6,500c0,246.7,200.7,447.4,447.4,447.4c246.7,0,447.4-200.7,447.4-447.4C947.4,253.3,746.7,52.6,500,52.6z"/><path d="M249.9,594.1c-51.9,0-94.1-42.2-94.1-94.1c0-51.9,42.2-94.1,94.1-94.1c51.9,0,94.1,42.2,94.1,94.1C344,551.9,301.8,594.1,249.9,594.1z M249.9,448.5c-28.4,0-51.5,23.1-51.5,51.5c0,28.4,23.1,51.5,51.5,51.5c28.4,0,51.5-23.1,51.5-51.5C301.4,471.6,278.3,448.5,249.9,448.5z"/><path d="M500,594.1c-51.9,0-94.1-42.2-94.1-94.1c0-51.9,42.2-94.1,94.1-94.1c51.9,0,94.1,42.2,94.1,94.1C594.1,551.9,551.9,594.1,500,594.1z M500,448.5c-28.4,0-51.5,23.1-51.5,51.5c0,28.4,23.1,51.5,51.5,51.5c28.4,0,51.5-23.1,51.5-51.5C551.5,471.6,528.4,448.5,500,448.5z"/><path d="M750.1,594.1c-51.9,0-94.1-42.2-94.1-94.1c0-51.9,42.2-94.1,94.1-94.1s94.1,42.2,94.1,94.1C844.2,551.9,802,594.1,750.1,594.1z M750.1,448.5c-28.4,0-51.5,23.1-51.5,51.5c0,28.4,23.1,51.5,51.5,51.5c28.4,0,51.5-23.1,51.5-51.5C801.6,471.6,778.5,448.5,750.1,448.5z"/></g>
</svg>