<?xml version="1.0" encoding="utf-8"?>
<!-- Svg Vector Icons : http://www.onlinewebfonts.com/icon -->
<!DOCTYPE svg PUBLIC "-//W3C//DTD SVG 1.1//EN" "http://www.w3.org/Graphics/SVG/1.1/DTD/svg11.dtd">
<svg version="1.1" xmlns="http://www.w3.org/2000/svg" xmlns:xlink="http://www.w3.org/1999/xlink" x="0px" y="0px" viewBox="0 0 1000 1000" enable-background="new 0 0 1000 1000" xml:space="preserve">
<metadata> Svg Vector Icons : http://www.onlinewebfonts.com/icon </metadata>
<g><g transform="translate(0.000000,512.000000) scale(0.100000,-0.100000)"><path d="M4656.5,5007.9c-7.7-5.8-13.4-59.5-13.4-119c0-132.5-59.5-428.1-109.4-539.4l-36.5-84.5l-61.4,88.3c-67.2,97.9-207.3,226.5-247.6,226.5c-13.4,0-25-17.3-25-40.3c0-65.3-109.4-376.3-199.6-564.4c-44.2-94.1-153.6-280.3-240-412.7c-353.2-531.7-426.2-789-424.2-1468.5c1.9-199.6,1.9-374.3,1.9-387.8c-1.9-11.5-44.2-71-97.9-132.5c-138.2-157.4-180.4-255.3-165.1-380.1c26.9-232.3,165.1-526,332.1-704.5c103.7-109.4,132.5-157.4,207.3-345.5c49.9-120.9,167-380.1,263-579.7c161.3-332.1,174.7-368.6,174.7-479.9c1.9-161.3-49.9-255.3-238-439.6c-205.4-199.6-464.6-366.6-873.4-564.4c-1013.6-485.7-1311.1-660.4-1549.1-906.1c-197.7-205.4-318.6-502.9-391.6-959.8c-38.4-228.4-21.1-332.1,69.1-443.4c76.8-96,161.2-132.4,460.7-193.9c1579.9-330.2,3347.8-435.8,4954.6-297.5c898.4,78.7,2203.7,289.8,2395.7,389.7c92.1,48,168.9,147.8,199.6,259.2c19.2,76.8,19.2,120.9-11.5,295.6c-19.2,113.2-55.7,278.3-80.6,368.6c-159.3,554.8-393.5,765.9-1389.8,1251.6c-921.4,451.1-1052,527.9-1316.9,773.6c-197.7,182.4-266.8,303.3-264.9,464.6c0,109.4,15.4,147.8,176.6,479.9c96,199.6,213.1,460.7,263,581.6c72.9,182.4,105.6,238,197.7,335.9c224.6,241.9,393.5,691.1,330.2,883c-11.5,36.5-72.9,124.8-136.3,193.9c-61.4,69.1-113.3,132.5-113.3,140.1c0,7.7-3.8,230.4-7.7,493.3c-7.7,527.9-28.8,668-145.9,1036.6c-149.7,466.5-335.9,789-600.8,1038.5c-161.3,153.6-339.8,268.8-385.8,251.5c-15.4-5.8-30.7-59.5-38.4-126.7c-7.7-63.4-26.9-161.2-42.2-216.9l-30.7-99.8l-49.9,126.7c-28.8,69.1-86.4,184.3-128.6,257.2c-90.2,157.4-387.8,464.5-502.9,524.1C4673.8,5027.1,4673.8,5027.1,4656.5,5007.9z"/></g></g>
</svg>